<svg viewBox="0 0 24 24" fill="none" xmlns="http://www.w3.org/2000/svg">
<path d="M17.2555 7.2002H6.74424C6.28017 7.2002 5.90424 7.57613 5.90424 8.0402C5.90424 8.50426 6.28017 8.8802 6.74424 8.8802H17.2555C17.7196 8.8802 18.0955 8.50426 18.0955 8.0402C18.0955 7.57613 17.7196 7.2002 17.2555 7.2002Z" fill="black"/>
<path d="M17.2555 11.1602H6.74424C6.28017 11.1602 5.90424 11.5361 5.90424 12.0002C5.90424 12.4642 6.28017 12.8402 6.74424 12.8402H17.2555C17.7196 12.8402 18.0955 12.4642 18.0955 12.0002C18.0955 11.5361 17.7196 11.1602 17.2555 11.1602Z" fill="black"/>
<path d="M18.0955 15.9601C18.0955 15.737 18.0074 15.5232 17.8499 15.3657C17.6924 15.2082 17.4786 15.1201 17.2555 15.1201H6.74424C6.28017 15.1201 5.90424 15.4961 5.90424 15.9601C5.90424 16.4242 6.28017 16.8001 6.74424 16.8001H17.2555C17.7196 16.8001 18.0955 16.4242 18.0955 15.9601Z" fill="black"/>
</svg>
