<?xml version="1.0" encoding="UTF-8" standalone="no"?>
<!DOCTYPE svg PUBLIC "-//W3C//DTD SVG 1.1//EN" "http://www.w3.org/Graphics/SVG/1.1/DTD/svg11.dtd">
<svg viewBox="0 0 170 48" version="1.1" xmlns="http://www.w3.org/2000/svg" xmlns:xlink="http://www.w3.org/1999/xlink" xml:space="preserve" xmlns:serif="http://www.serif.com/" style="fill-rule:evenodd;clip-rule:evenodd;stroke-linejoin:round;stroke-miterlimit:2;">
    <g transform="matrix(0.264588,0,0,0.264588,-25.2708,-22.8291)">
        <rect x="305.16" y="66.53" width="1" height="221.22"/>
    </g>
    <g transform="matrix(0.264588,0,0,0.264588,-25.2708,-22.8291)">
        <circle cx="185.42" cy="177.14" r="89.91"/>
        <g>
            <path d="M153.6,117.22C154.08,118.35 154.55,119.54 154.99,120.71L155.22,121.29L154.88,121.65C153.87,122.71 154.02,123.99 154.19,124.66C154.52,125.94 155.49,127.08 156.59,127.51L157.03,127.69L157.13,128.11C157.54,129.84 157.99,131.58 158.43,133.26L161.65,147.94C169.32,144.64 177.76,142.86 186.34,142.86C193.6,142.86 200.75,144.11 207.6,146.57C208.17,146.77 208.72,146.97 209.26,147.17C210.19,142.48 211.49,136.71 212.39,133.26C212.83,131.58 213.27,129.84 213.68,128.11L213.78,127.69L214.22,127.51C215.33,127.08 216.29,125.94 216.62,124.66C216.79,123.99 216.94,122.71 215.93,121.65L215.6,121.29L215.82,120.71C216.26,119.55 216.72,118.35 217.2,117.22C217.5,116.54 217.82,115.93 218.13,115.33C218.28,115.05 218.42,114.78 218.55,114.5C218.02,114.34 217.45,114.24 216.86,114.24C214.5,114.24 212.27,115.63 211.29,117C211.18,117.15 211.09,117.31 211,117.44C210.69,117.94 210.34,118.51 209.55,118.83C209.03,119.04 208.53,119.08 208.09,119.11C207.83,119.13 207.58,119.15 207.34,119.21C205.73,119.53 203.92,120.31 202.74,121.19C201.66,121.99 200.59,122.98 200.56,124.27C201.56,124.04 202.72,124.17 203.78,124.74C205.84,125.83 206.77,128.11 205.86,129.82C205.21,131.05 203.77,131.65 202.25,131.48C201.55,130.17 200.54,128.46 199.27,127.89C198.87,127.71 198.26,127.52 197.78,127.52C197.3,127.52 196.7,127.72 196.3,127.89C195.02,128.46 194.01,130.19 193.31,131.51C191.98,131.51 190.78,130.92 190.2,129.82C189.29,128.11 190.22,125.84 192.28,124.74C193.41,124.14 194.64,124.02 195.67,124.31C195.72,124.29 195.83,124.08 195.7,123.2C195.51,121.9 194.13,120.29 193,119.66C192.79,119.53 192.51,119.42 192.22,119.3C191.7,119.08 191.16,118.85 190.77,118.47C190.29,118 188.92,114.18 186.89,113.28C186.48,113.1 185.88,112.91 185.4,112.91C184.92,112.91 184.33,113.11 183.92,113.28C181.9,114.18 180.53,117.99 180.04,118.47C179.66,118.84 179.11,119.08 178.58,119.3C178.3,119.42 178.02,119.53 177.81,119.66C176.68,120.3 175.3,121.9 175.11,123.2C174.97,124.13 175.11,124.32 175.15,124.32L175.26,124.32C176.29,124.03 177.52,124.15 178.64,124.75C180.7,125.84 181.63,128.12 180.72,129.83C180.15,130.89 179.01,131.48 177.73,131.52C177.03,130.19 175.99,128.37 174.68,127.79C174.27,127.61 173.67,127.42 173.19,127.42C172.71,127.42 172.11,127.62 171.71,127.79C170.41,128.37 169.37,130.16 168.68,131.49C167.16,131.66 165.72,131.06 165.06,129.83C164.15,128.12 165.08,125.85 167.14,124.75C168.17,124.2 169.29,124.05 170.26,124.25C170.21,122.97 169.14,121.99 168.08,121.19C166.9,120.31 165.09,119.52 163.48,119.21C163.23,119.16 163,119.13 162.73,119.11C162.29,119.08 161.79,119.04 161.27,118.83C160.48,118.51 160.13,117.94 159.81,117.44C159.73,117.31 159.63,117.15 159.52,117C158.54,115.63 156.3,114.24 153.95,114.24C153.37,114.24 152.8,114.33 152.26,114.5C152.4,114.78 152.54,115.04 152.68,115.33C152.99,115.92 153.31,116.54 153.6,117.22Z" style="fill:rgb(176,156,65);fill-rule:nonzero;"/>
            <path d="M225.87,200.6C226.78,197.52 229.06,193.69 231,191.28C231.09,191.17 231.19,191.05 231.18,191.03C231.16,191 231.18,191.03 230.98,191.13C230.1,191.62 225.21,193.33 217.81,192.15C210.86,191.04 206.65,186.66 197.44,184.09C189.23,181.81 180.84,181.31 175.02,187.16C172.24,189.95 171.55,194.43 172.58,198.36C174.48,205.58 183.37,207.72 183.3,207.47C183.14,206.84 182.82,205.95 182.67,204.3C181.82,194.53 196.94,187.97 205.9,196.42C211.69,201.88 211.22,219.15 204.36,224.54C191.74,234.47 163.75,228.25 160.1,198.65C157.33,176.2 170.09,153.94 195.05,159.09C206.94,161.54 208.9,173.11 216.86,174.63C226.33,176.43 231.14,163.91 227.52,155.14C221.29,161.73 215.58,157.6 203.62,153C173.01,141.21 139.16,162.92 139.62,195.51C139.78,207.03 143.88,217.56 150.91,225.61C156.13,231.64 162.98,236.38 170.98,238.97C175.1,240.33 179.47,241.13 184.01,241.27C200.74,242.19 213.57,235.58 228.92,227.88C227.6,225.91 226.56,223.7 225.84,221.26C225.65,220.63 225.38,219.34 225.15,218.22C224.93,217.11 224.76,216.17 224.76,216.17C224.22,212.83 224.18,209.2 224.76,205.67C225,203.91 225.35,202.22 225.84,200.61L225.87,200.6Z" style="fill:white;fill-rule:nonzero;"/>
        </g>
    </g>
    <g transform="matrix(0.311276,0,0,0.311276,-40.9593,-25.3611)">
        <g>
            <path d="M338.67,133.64C339.33,133.53 340.09,133.45 340.95,133.39C341.8,133.34 342.62,133.31 343.39,133.31C344.16,133.31 345,133.34 345.91,133.39C346.82,133.45 347.58,133.53 348.19,133.64L363.58,170.88L379.05,133.64C379.6,133.53 380.29,133.45 381.12,133.39C381.95,133.34 382.75,133.31 383.52,133.31C384.24,133.31 385.04,133.34 385.92,133.39C386.8,133.45 387.55,133.53 388.15,133.64L390.96,193.13C390.3,193.24 389.62,193.32 388.93,193.38C388.24,193.43 387.54,193.46 386.82,193.46C386.1,193.46 385.4,193.43 384.71,193.38C384.02,193.32 383.37,193.24 382.76,193.13L380.86,146.87L366.3,180.8C365.2,180.97 364.07,181.05 362.91,181.05C361.86,181.05 360.81,180.97 359.77,180.8L345.7,146.63L343.8,193.13C343.19,193.24 342.56,193.32 341.9,193.38C341.24,193.43 340.6,193.46 340,193.46C339.28,193.46 338.59,193.43 337.93,193.38C337.27,193.32 336.63,193.24 336.03,193.13L338.68,133.64L338.67,133.64Z" style="fill-rule:nonzero;"/>
            <path d="M426.3,165.17C426.3,161.91 425.47,159.65 423.82,158.38C422.17,157.11 419.77,156.48 416.62,156.48C414.69,156.48 412.88,156.63 411.2,156.94C409.52,157.24 407.88,157.64 406.28,158.14C405.23,156.32 404.71,154.14 404.71,151.6C406.58,150.99 408.65,150.52 410.92,150.19C413.18,149.86 415.36,149.69 417.46,149.69C422.98,149.69 427.17,150.94 430.04,153.45C432.91,155.96 434.34,159.97 434.34,165.49L434.34,192.05C432.41,192.49 430.06,192.95 427.31,193.42C424.55,193.89 421.74,194.12 418.87,194.12C416.17,194.12 413.73,193.87 411.55,193.38C409.37,192.88 407.52,192.09 406.01,190.98C404.49,189.88 403.32,188.47 402.49,186.76C401.66,185.05 401.25,182.98 401.25,180.55C401.25,178.12 401.73,176.1 402.7,174.3C403.66,172.51 404.98,171.02 406.63,169.83C408.28,168.64 410.19,167.76 412.34,167.18C414.49,166.6 416.75,166.31 419.12,166.31C420.89,166.31 422.33,166.35 423.46,166.43C424.59,166.51 425.54,166.61 426.32,166.72L426.32,165.15L426.3,165.17ZM426.3,173.2C425.47,173.09 424.42,172.98 423.16,172.87C421.89,172.76 420.81,172.71 419.93,172.71C416.51,172.71 413.9,173.34 412.11,174.61C410.32,175.88 409.42,177.81 409.42,180.4C409.42,182.05 409.72,183.35 410.33,184.29C410.94,185.23 411.7,185.94 412.61,186.44C413.52,186.94 414.53,187.24 415.63,187.35C416.73,187.46 417.78,187.51 418.77,187.51C420.04,187.51 421.35,187.44 422.7,187.3C424.05,187.16 425.25,186.96 426.3,186.68L426.3,173.19L426.3,173.2Z" style="fill-rule:nonzero;"/>
            <path d="M474.96,185.77C475.4,186.54 475.79,187.51 476.12,188.67C476.45,189.83 476.64,191.01 476.7,192.23C473.44,193.5 469.72,194.13 465.53,194.13C458.47,194.13 453.14,192.13 449.56,188.13C445.97,184.13 444.18,178.74 444.18,171.95C444.18,168.81 444.62,165.88 445.5,163.18C446.38,160.48 447.69,158.13 449.43,156.15C451.17,154.16 453.33,152.59 455.93,151.43C458.52,150.27 461.53,149.69 464.95,149.69C467.27,149.69 469.31,149.83 471.07,150.1C472.84,150.38 474.52,150.82 476.12,151.42C476.12,152.36 476,153.45 475.75,154.69C475.5,155.93 475.16,157.02 474.72,157.96C472.02,157.02 468.93,156.55 465.45,156.55C461.2,156.55 458.03,157.96 455.93,160.77C453.83,163.58 452.79,167.31 452.79,171.94C452.79,177.24 453.98,181.11 456.35,183.57C458.72,186.03 461.98,187.25 466.11,187.25C467.76,187.25 469.3,187.14 470.7,186.92C472.11,186.7 473.53,186.31 474.96,185.76L474.96,185.77Z" style="fill-rule:nonzero;"/>
            <path d="M486.13,132.48C486.74,132.37 487.41,132.29 488.16,132.23C488.9,132.18 489.58,132.15 490.19,132.15C490.8,132.15 491.49,132.18 492.26,132.23C493.03,132.29 493.72,132.37 494.33,132.48L494.33,157.14C494.83,156.37 495.45,155.54 496.19,154.66C496.93,153.78 497.85,152.96 498.92,152.22C499.99,151.48 501.24,150.87 502.64,150.4C504.05,149.93 505.6,149.7 507.31,149.7C512.16,149.7 515.76,151.09 518.11,153.88C520.45,156.67 521.63,160.79 521.63,166.25L521.63,193.14C521.02,193.25 520.35,193.33 519.6,193.39C518.86,193.44 518.18,193.47 517.57,193.47C516.96,193.47 516.29,193.44 515.54,193.39C514.8,193.33 514.12,193.25 513.51,193.14L513.51,168.48C513.51,164.56 512.86,161.68 511.57,159.83C510.27,157.98 508.3,157.06 505.65,157.06C504.16,157.06 502.73,157.32 501.35,157.85C499.97,158.37 498.76,159.2 497.71,160.33C496.66,161.46 495.83,162.94 495.23,164.76C494.62,166.58 494.32,168.79 494.32,171.38L494.32,193.14C493.71,193.25 493.02,193.33 492.25,193.39C491.48,193.44 490.79,193.47 490.18,193.47C489.63,193.47 488.97,193.44 488.19,193.39C487.42,193.33 486.73,193.25 486.12,193.14L486.12,132.49L486.13,132.48Z" style="fill-rule:nonzero;"/>
            <path d="M541.32,133.64C541.98,133.53 542.74,133.45 543.6,133.39C544.45,133.34 545.27,133.31 546.04,133.31C546.81,133.31 547.65,133.34 548.56,133.39C549.47,133.45 550.23,133.53 550.84,133.64L566.23,170.88L581.7,133.64C582.25,133.53 582.94,133.45 583.77,133.39C584.6,133.34 585.4,133.31 586.17,133.31C586.89,133.31 587.69,133.34 588.57,133.39C589.45,133.45 590.2,133.53 590.8,133.64L593.61,193.13C592.95,193.24 592.27,193.32 591.58,193.38C590.89,193.43 590.19,193.46 589.47,193.46C588.75,193.46 588.05,193.43 587.36,193.38C586.67,193.32 586.02,193.24 585.41,193.13L583.51,146.87L568.95,180.8C567.85,180.97 566.72,181.05 565.56,181.05C564.51,181.05 563.46,180.97 562.42,180.8L548.35,146.63L546.45,193.13C545.84,193.24 545.21,193.32 544.55,193.38C543.89,193.43 543.25,193.46 542.65,193.46C541.93,193.46 541.24,193.43 540.58,193.38C539.92,193.32 539.28,193.24 538.68,193.13L541.33,133.64L541.32,133.64Z" style="fill-rule:nonzero;"/>
            <path d="M609,157.14L603.62,157.14C603.51,156.7 603.43,156.19 603.37,155.61C603.31,155.03 603.29,154.47 603.29,153.91C603.29,153.35 603.32,152.79 603.37,152.21C603.42,151.63 603.51,151.12 603.62,150.68L617.02,150.68L617.02,193.13C616.41,193.24 615.74,193.32 614.99,193.38C614.25,193.43 613.57,193.46 612.96,193.46C612.41,193.46 611.76,193.43 611.02,193.38C610.28,193.32 609.6,193.24 608.99,193.13L608.99,157.14L609,157.14Z" style="fill-rule:nonzero;"/>
            <path d="M631.92,157.22L625.47,157.22L625.14,156.06L639.37,140.17L640.03,140.17L640.03,150.68L650.79,150.68C651.01,151.62 651.12,152.67 651.12,153.82C651.12,154.43 651.09,155.01 651.04,155.56C650.98,156.11 650.9,156.66 650.79,157.21L640.03,157.21L640.03,176.57C640.03,178.89 640.13,180.74 640.32,182.11C640.51,183.49 640.84,184.55 641.31,185.3C641.78,186.04 642.41,186.54 643.21,186.79C644.01,187.04 645.02,187.16 646.23,187.16C647.17,187.16 648.05,187.09 648.88,186.95C649.71,186.81 650.45,186.66 651.11,186.49C651.5,187.59 651.73,188.72 651.81,189.88C651.89,191.04 651.93,192.06 651.93,192.94C650.83,193.22 649.67,193.42 648.45,193.56C647.24,193.7 645.94,193.77 644.56,193.77C640.59,193.77 637.48,192.8 635.25,190.87C633.02,188.94 631.9,185.74 631.9,181.27L631.9,157.19L631.92,157.22Z" style="fill-rule:nonzero;"/>
        </g>
        <g>
            <g>
                <path d="M660.99,133.64C661.71,133.53 662.41,133.45 663.1,133.39C663.79,133.34 664.49,133.31 665.21,133.31C665.98,133.31 666.75,133.34 667.53,133.39C668.3,133.45 669.07,133.53 669.85,133.64L669.35,175.26C668.08,175.48 666.78,175.59 665.46,175.59C663.97,175.59 662.67,175.48 661.57,175.26L660.99,133.64Z" style="fill:rgb(176,156,65);fill-rule:nonzero;"/>
                <circle cx="665.41" cy="187.9" r="5.89" style="fill:rgb(176,156,65);"/>
            </g>
            <circle cx="611.61" cy="138.53" r="5.66" style="fill:rgb(176,156,65);"/>
        </g>
    </g>
</svg>
