<?xml version="1.0" encoding="UTF-8"?>
<svg id="Layer_1" xmlns="http://www.w3.org/2000/svg" xmlns:xlink="http://www.w3.org/1999/xlink" version="1.1" viewBox="0 0 178.1 248.7">
  <!-- Generator: Adobe Illustrator 30.0.0, SVG Export Plug-In . SVG Version: 2.1.1 Build 123)  -->
  <defs>
    <style>
      .st0 {
        fill: #b7d4e7;
      }

      .st1 {
        fill: url(#linear-gradient);
      }

      .st2 {
        fill: #eded90;
      }

      .st3 {
        fill: #fff;
      }

      .st4 {
        fill: #fefefa;
      }

      .st5 {
        fill: #d2f9f7;
        opacity: .6;
      }

      .st6 {
        fill: #a57e00;
      }

      .st7 {
        fill: #bc8b00;
      }
    </style>
    <linearGradient id="linear-gradient" x1="1225" y1="1635.8" x2="1235.1" y2="2364.7" gradientTransform="translate(-277.4 -479.5) scale(.3)" gradientUnits="userSpaceOnUse">
      <stop offset="0" stop-color="#c1a628"/>
      <stop offset=".3" stop-color="#9e5a25"/>
      <stop offset="1" stop-color="#e5c71f"/>
    </linearGradient>
  </defs>
  <g id="Generative_Object">
    <path class="st1" d="M154.6,40.1l1.5-.6c31.9,44.9,6.7,92.9-18.2,134.2-10.6,17.6-26.6,43-40.5,57.8-4.8,5.1-5.1,7-10.6,1.7-.2-.1-.4-.7-.6-.9-25.5-26.2-63.5-90.7-72.6-126C3.4,66.7,26,22.9,65,10c-.2.7.6.6.6.8s-.8.5-.6,1.1c-.5.2-3.7,1-3.6,1.4,43.1-14.9,92.2,8.6,104.5,53.1-1.7-8.8-6.2-18.6-11.3-26v-.3h0Z"/>
    <g>
      <path class="st6" d="M157,106.3c7.7-25,.6-49.8-17.8-67.8-1.3-1.2-2.3-2.2-3.6-3.3C83-8.9,4.7,42.2,26.4,107.8l-1.2.5C5,50.4,63.1-3.2,119.7,21c56.6,24.2,43.1,78.4,39.2,83-.3.9-.6,2.6-1.8,2.3h-.1,0Z"/>
      <path class="st7" d="M154.6,40.1c5.2,7.4,10.6,15.7,11.3,26C153.6,21.6,101.1,4.2,61.4,13.3c0-.4,3.1-3.1,3.6-3.3,32.7-10.8,71.4,1.1,91.1,29.5l-1.5.6h0Z"/>
      <g>
        <g>
          <ellipse class="st3" cx="92.1" cy="85.7" rx="68" ry="67.1"/>
          <g>
            <path d="M66.3,37.7c.4.9.8,1.9,1.1,2.8l.2.5-.3.3c-.8.9-.7,1.9-.6,2.4.3,1,1.1,1.9,2,2.3h.4c0,.1,0,.5,0,.5.3,1.4.7,2.8,1.1,4.1l2.6,11.8c6.2-2.6,13.1-4.1,20.1-4.1s11.7,1,17.3,3c.5.2.9.3,1.4.5.8-3.8,1.8-8.4,2.5-11.1.4-1.3.7-2.7,1-4.1v-.3c0,0,.4-.1.4-.1.9-.3,1.7-1.3,2-2.3.1-.5.3-1.6-.6-2.4l-.3-.3.2-.5c.4-.9.7-1.9,1.1-2.8.2-.5.5-1,.8-1.5.1-.2.2-.4.3-.7-.4-.1-.9-.2-1.4-.2-1.9,0-3.7,1.1-4.5,2.2,0,.1-.2.2-.2.3-.2.4-.5.9-1.2,1.1-.4.2-.8.2-1.2.2-.2,0-.4,0-.6,0-1.3.3-2.8.9-3.7,1.6-.9.6-1.7,1.4-1.8,2.5.8-.2,1.8,0,2.6.4,1.7.9,2.4,2.7,1.7,4.1-.5,1-1.7,1.5-2.9,1.3-.6-1.1-1.4-2.4-2.4-2.9-.3-.1-.8-.3-1.2-.3s-.9.2-1.2.3c-1,.5-1.9,1.8-2.4,2.9-1.1,0-2.1-.5-2.5-1.4-.7-1.4,0-3.2,1.7-4.1.9-.5,1.9-.6,2.8-.3,0,0,.1-.2,0-.9-.2-1-1.3-2.3-2.2-2.8-.2-.1-.4-.2-.6-.3-.4-.2-.9-.4-1.2-.7-.4-.4-1.5-3.4-3.1-4.2-.3-.1-.8-.3-1.2-.3s-.9.2-1.2.3c-1.6.7-2.8,3.8-3.1,4.2-.3.3-.8.5-1.2.7-.2,0-.5.2-.6.3-.9.5-2,1.8-2.2,2.8-.1.7,0,.9,0,.9s0,0,0,0c.8-.2,1.8-.1,2.7.3,1.7.9,2.4,2.7,1.7,4.1-.5.9-1.4,1.3-2.4,1.4-.6-1.1-1.4-2.5-2.5-3-.3-.1-.8-.3-1.2-.3s-.9.2-1.2.3c-1.1.5-1.9,1.9-2.5,3-1.2.1-2.4-.3-2.9-1.3-.7-1.4,0-3.2,1.7-4.1.8-.4,1.7-.6,2.5-.4,0-1-.9-1.8-1.8-2.4-1-.7-2.4-1.3-3.7-1.6-.2,0-.4,0-.6,0-.4,0-.8,0-1.2-.2-.6-.3-.9-.7-1.2-1.1,0-.1-.1-.2-.2-.3-.8-1.1-2.6-2.2-4.5-2.2s-.9,0-1.4.2c.1.2.2.4.3.7.2.5.5,1,.7,1.5Z"/>
            <path d="M125,104.5c.7-2.5,2.6-5.5,4.2-7.5,0,0,.2-.2.1-.2,0,0,0,0-.2,0-.7.4-4.7,1.8-10.7.8-5.6-.9-9.1-4.4-16.6-6.5-6.7-1.8-13.5-2.2-18.2,2.5-2.3,2.2-2.8,5.8-2,9,1.5,5.8,8.8,7.5,8.7,7.3-.1-.5-.4-1.2-.5-2.5-.7-7.8,11.6-13.1,18.9-6.3,4.7,4.4,4.3,18.2-1.3,22.5-10.3,8-33,3-36-20.7-2.3-18,8.1-35.8,28.4-31.7,9.7,2,11.3,11.2,17.7,12.5,7.7,1.4,11.6-8.6,8.7-15.6-5.1,5.3-9.7,2-19.4-1.7-24.9-9.4-52.4,8-52,34.1.1,9.2,3.5,17.7,9.2,24.1,4.2,4.8,9.8,8.6,16.3,10.7,3.3,1.1,6.9,1.7,10.6,1.8,13.6.7,24-4.6,36.5-10.7-1.1-1.6-1.9-3.4-2.5-5.3-.2-.5-.4-1.5-.6-2.4-.2-.9-.3-1.6-.3-1.6-.4-2.7-.5-5.6,0-8.4.2-1.4.5-2.8.9-4Z"/>
          </g>
        </g>
        <ellipse class="st5" cx="91.1" cy="87.6" rx="68" ry="67.1"/>
        <path class="st0" d="M135.5,35.2l-4.2,3.6c-2.2-2.1-6.6-4.8-9.4-6.4-9.2-5.3-19.2-8.1-29.9-8.2s-.4,0-.6,0c-31.1,0-40.9,15.8-58.7,37.1-1,1.2-3.5,2.5-3.6,2.7-3.9,4.9-3.8,26.3-2.7,32.7,13.3,81.6,142.9,65.1,130.1-21.5-.2-1.1-2.3-10.2-2.7-10.6s-.8.4-1.1.2c-7.2-6.8-12.7-14.1-18.6-21.9s.4-.3.3-.5l4.8-3.9c18.4,17.9,25.6,42.7,17.8,67.8-2.6,8.6-7.6,17.1-13.3,23.9-3.1-.3-5.3,3.8-7.7,5.7-22.6,18.7-52.1,22.3-78,7.9-8.2-4.6-14.4-11.3-21.6-16.9-4.4-6-7.6-12-10-19.1C4.7,42.2,83-8.9,135.6,35.2h-.1Z"/>
        <path class="st2" d="M143.7,130.2c-28.8,34.2-80.8,32.6-107.4-3.3,7.2,5.6,13.4,12.4,21.6,16.9,26,14.4,55.5,10.8,78-7.9,2.4-2,4.6-6.1,7.7-5.7h.1Z"/>
        <path class="st4" d="M121.9,32.5l-1.7,4.5c-5.9-2.8-13.5-5.6-20-6.1s-4.8-.7-5.3,1.1l2.7.3c-1.4.6-3.1,1.1-4.5,1.7l1.2-3.5-2.7,2.7.3-8.9c10.7.1,20.8,2.9,29.9,8.2h0Z"/>
        <path class="st0" d="M139.2,38.6l-4.8,3.9c-.9-1.1-2-2.7-3-3.6l4.2-3.6c1.3,1.1,2.4,2.1,3.6,3.3h0Z"/>
      </g>
    </g>
  </g>
  <path class="st3" d="M61.4,13"/>
</svg>