<?xml version="1.0" encoding="UTF-8"?>
<svg id="Layer_1" xmlns="http://www.w3.org/2000/svg" version="1.1" viewBox="0 0 394.2 360.3">
  <!-- Generator: Adobe Illustrator 29.8.3, SVG Export Plug-In . SVG Version: 2.1.1 Build 3)  -->
  <defs>
    <style>
      .st0 {
        fill: #fff;
      }

      .st1 {
        fill: #b09c40;
      }
    </style>
  </defs>
  <g id="b">
    <g>
      <circle class="st0" cx="196.4" cy="89.9" r="89.9"/>
      <g>
        <path class="st1" d="M164.6,30c.5,1.1.9,2.3,1.4,3.5l.2.6-.3.4c-1,1.1-.9,2.3-.7,3,.3,1.3,1.3,2.4,2.4,2.8l.4.2v.4c.5,1.7,1,3.5,1.4,5.2l3.2,14.7c7.7-3.3,16.1-5.1,24.7-5.1s14.4,1.2,21.3,3.7c.6.2,1.1.4,1.7.6.9-4.7,2.2-10.5,3.1-13.9.4-1.7.9-3.4,1.3-5.2v-.4c.1,0,.5-.2.5-.2,1.1-.4,2.1-1.6,2.4-2.8.2-.7.3-1.9-.7-3l-.3-.4.2-.6c.4-1.2.9-2.4,1.4-3.5.3-.7.6-1.3.9-1.9.1-.3.3-.6.4-.8-.5-.2-1.1-.3-1.7-.3-2.4,0-4.6,1.4-5.6,2.8-.1.2-.2.3-.3.4-.3.5-.7,1.1-1.5,1.4-.5.2-1,.2-1.5.3-.3,0-.5,0-.8,0-1.6.3-3.4,1.1-4.6,2-1.1.8-2.1,1.8-2.2,3.1,1-.2,2.2,0,3.2.5,2.1,1.1,3,3.4,2.1,5.1-.6,1.2-2.1,1.8-3.6,1.7-.7-1.3-1.7-3-3-3.6-.4-.2-1-.4-1.5-.4s-1.1.2-1.5.4c-1.3.6-2.3,2.3-3,3.6-1.3,0-2.5-.6-3.1-1.7-.9-1.7,0-4,2.1-5.1,1.1-.6,2.4-.7,3.4-.4,0,0,.2-.2,0-1.1-.2-1.3-1.6-2.9-2.7-3.5-.2-.1-.5-.2-.8-.4-.5-.2-1.1-.4-1.4-.8-.5-.5-1.9-4.3-3.9-5.2-.4-.2-1-.4-1.5-.4s-1.1.2-1.5.4c-2,.9-3.4,4.7-3.9,5.2-.4.4-.9.6-1.5.8-.3.1-.6.2-.8.4-1.1.6-2.5,2.2-2.7,3.5-.1.9,0,1.1,0,1.1h.1c1-.3,2.3-.2,3.4.4,2.1,1.1,3,3.4,2.1,5.1-.6,1.1-1.7,1.7-3,1.7-.7-1.3-1.7-3.2-3.1-3.7-.4-.2-1-.4-1.5-.4s-1.1.2-1.5.4c-1.3.6-2.3,2.4-3,3.7-1.5.2-3-.4-3.6-1.7-.9-1.7,0-4,2.1-5.1,1-.6,2.1-.7,3.1-.5,0-1.3-1.1-2.3-2.2-3.1-1.2-.9-3-1.7-4.6-2-.2,0-.5,0-.8,0-.4,0-.9,0-1.5-.3-.8-.3-1.1-.9-1.5-1.4,0-.1-.2-.3-.3-.4-1-1.4-3.2-2.8-5.6-2.8s-1.1,0-1.7.3c.1.3.3.5.4.8.3.6.6,1.2.9,1.9h0Z"/>
        <path d="M236.9,113.4c.9-3.1,3.2-6.9,5.1-9.3,0-.1.2-.2.2-.2,0,0,0,0-.2.1-.9.5-5.8,2.2-13.2,1-7-1.1-11.2-5.5-20.4-8.1-8.2-2.3-16.6-2.8-22.4,3.1-2.8,2.8-3.5,7.3-2.4,11.2,1.9,7.2,10.8,9.4,10.7,9.1-.2-.6-.5-1.5-.6-3.2-.9-9.8,14.3-16.3,23.2-7.9,5.8,5.5,5.3,22.7-1.5,28.1-12.6,9.9-40.6,3.7-44.3-25.9-2.8-22.4,10-44.7,34.9-39.6,11.9,2.4,13.9,14,21.8,15.5,9.5,1.8,14.3-10.7,10.7-19.5-6.2,6.6-11.9,2.5-23.9-2.1-30.6-11.8-64.5,9.9-64,42.5.2,11.5,4.3,22.1,11.3,30.1,5.2,6,12.1,10.8,20.1,13.4,4.1,1.4,8.5,2.2,13,2.3,16.7.9,29.6-5.7,44.9-13.4-1.3-2-2.4-4.2-3.1-6.6-.2-.6-.5-1.9-.7-3-.2-1.1-.4-2.1-.4-2.1-.5-3.3-.6-7,0-10.5.2-1.8.6-3.4,1.1-5.1h0Z"/>
      </g>
    </g>
    <rect class="st0" x="85.8" y="208.8" width="221.2" height="1"/>
    <g>
      <path class="st0" d="M0,330.9c.5-.1,1.2-.2,2.1-.2s1.8,0,2.8,0,2.2.1,3.2.3c1,.2,1.8.5,2.4,1,.7.5,1.2,1,1.6,1.8.4.7.6,1.6.6,2.6s0,1.2-.3,1.8-.4,1-.8,1.4c-.3.4-.7.8-1.1,1s-.9.5-1.3.6c.6,0,1.1.2,1.7.5.6.2,1.1.6,1.6,1,.5.5.8,1,1.1,1.7.3.7.4,1.5.4,2.5s-.2,2.2-.7,3c-.5.8-1.1,1.5-1.9,2-.8.5-1.7.9-2.8,1.1s-2.2.3-3.5.3-1.6,0-2.5-.1c-.9,0-1.8-.2-2.6-.3v-21.8h0ZM5.3,340c1.4,0,2.4-.3,3.2-.9s1.1-1.5,1.1-2.7-.4-2-1.2-2.6c-.8-.6-1.8-.9-3.2-.9s-.8,0-1.2,0c-.4,0-.7,0-1,0v6.9h2.2,0ZM3.1,350.4c.3,0,.6,0,1.1,0,.4,0,.9,0,1.3,0,.7,0,1.4,0,2-.2s1.2-.3,1.7-.6c.5-.3.9-.7,1.2-1.2.3-.5.4-1.1.4-1.9s-.1-1.4-.4-1.9c-.3-.5-.6-.9-1.1-1.2-.5-.3-1-.5-1.6-.7-.6-.1-1.3-.2-2-.2h-2.5s0,7.8,0,7.8Z"/>
      <path class="st0" d="M18.4,337.2c.2,0,.5,0,.8,0s.5,0,.7,0,.5,0,.8,0,.5,0,.8,0v8.5c0,1,0,1.8.3,2.4.2.6.5,1.1.8,1.5.4.4.8.6,1.3.8s1.1.2,1.8.2c1,0,1.9-.1,2.6-.3v-13.1c.2,0,.5,0,.7,0s.5,0,.7,0,.5,0,.7,0,.5,0,.7,0v15.1c-.7.2-1.6.4-2.5.6-1,.2-2,.3-3.1.3s-1.9,0-2.8-.3-1.7-.5-2.3-1c-.7-.5-1.2-1.3-1.6-2.2-.4-1-.6-2.2-.6-3.8v-8.7h0ZM20.3,334.4c0-.3,0-.5,0-.8,0-.2,0-.5,0-.8s0-.5,0-.7c0-.2,0-.5,0-.8.2,0,.5,0,.8,0s.5,0,.8,0,.5,0,.7,0,.5,0,.8,0c0,.5.1,1,.1,1.5s0,.5,0,.7,0,.5,0,.8c-.5,0-1,0-1.6,0s-.5,0-.8,0c-.3,0-.6,0-.8,0h0ZM26.5,334.4c0-.5-.1-1-.1-1.5s0-.5,0-.7,0-.5,0-.8c.2,0,.5,0,.8,0s.5,0,.7,0,.5,0,.8,0,.5,0,.8,0c0,.5,0,1,0,1.5s0,1,0,1.5c-.5,0-1,0-1.6,0s-.5,0-.8,0c-.3,0-.6,0-.8,0h0Z"/>
      <path class="st0" d="M36.7,337.2c.2,0,.4,0,.6,0s.4,0,.6,0,.4,0,.7,0c.2,0,.4,0,.6,0,0,.3.1.7.2,1.2s0,.9,0,1.3c.4-.7,1-1.3,1.7-1.8.7-.5,1.6-.8,2.7-.8s.3,0,.5,0,.3,0,.4,0c0,.2,0,.4,0,.6,0,.2,0,.4,0,.6s0,.5,0,.8c0,.3,0,.5-.1.8-.2,0-.3,0-.5,0h-.4c-.6,0-1.1,0-1.6.2-.5.1-.9.4-1.3.8-.4.4-.7.9-.9,1.6-.2.7-.3,1.5-.3,2.6v7.8c-.2,0-.5,0-.7,0s-.5,0-.7,0-.5,0-.7,0-.5,0-.8,0v-15.6h0Z"/>
      <path class="st0" d="M57,350.8c1.8,0,3.1.4,3.9,1.1s1.2,1.7,1.2,3-.2,1.6-.6,2.2c-.4.7-1,1.2-1.8,1.7-.8.5-1.6.8-2.7,1.1-1,.2-2.1.4-3.3.4-2.1,0-3.7-.3-4.8-1-1.1-.6-1.6-1.7-1.6-3.1s.2-1.6.7-2.2,1-1.2,1.7-1.6c-.4-.3-.7-.6-1-1-.3-.4-.4-.9-.4-1.5s.2-1.4.5-1.9c.3-.5.8-1,1.3-1.5-.7-.5-1.2-1.1-1.6-1.8s-.6-1.6-.6-2.5.1-1.5.4-2.2.7-1.2,1.2-1.8,1.2-.9,2-1.2,1.7-.4,2.7-.4,1.7.1,2.5.4,1.4.6,1.9,1c.4-.3.9-.6,1.6-.8s1.4-.3,2.3-.3c0,.4.1.8.1,1.3s0,.5,0,.7c0,.2,0,.5,0,.7h-2.7c.2.3.4.7.5,1.1.1.4.2.9.2,1.4,0,.8-.2,1.6-.5,2.2-.3.7-.7,1.2-1.3,1.7s-1.2.8-2,1.1-1.6.4-2.5.4-1.6,0-2.2-.3c-.3.2-.6.4-.8.7s-.4.7-.4,1.1.1.7.4,1c.3.3.8.4,1.8.4h4c0,0,0,0,0,0ZM52.9,353.2c-.9,0-1.6.2-2.1.7-.5.5-.7,1.1-.7,1.8s0,.8.3,1.1.4.5.8.7.7.3,1.2.4c.5,0,1,.1,1.5.1,1.6,0,2.9-.3,3.8-.8.9-.5,1.4-1.2,1.4-2s-.2-1.1-.6-1.4-1.1-.5-2.1-.5h-3.5c0,0,0,0,0,0ZM54.3,345.6c1.1,0,1.9-.3,2.4-.9s.8-1.4.8-2.3-.3-1.8-.8-2.4-1.3-.9-2.4-.9-1.9.3-2.4.9c-.5.6-.8,1.4-.8,2.4s.3,1.7.8,2.3c.5.6,1.3.9,2.4.9Z"/>
      <path class="st0" d="M68.2,345.7c0,1.7.5,3,1.3,3.7.8.8,2.1,1.2,3.7,1.2s2.8-.2,4.1-.8c.2.3.3.7.4,1.1.1.4.2.9.2,1.3-.7.3-1.4.5-2.2.6s-1.7.2-2.7.2c-1.4,0-2.6-.2-3.6-.6-1-.4-1.8-1-2.5-1.7s-1.1-1.6-1.4-2.5c-.3-1-.5-2.1-.5-3.2s.2-2.2.4-3.2c.3-1,.7-1.9,1.3-2.6s1.4-1.3,2.3-1.8c.9-.4,2-.6,3.3-.6s2,.2,2.8.5c.8.4,1.5.9,2,1.5.6.6,1,1.4,1.2,2.3.3.9.4,1.8.4,2.9s0,.6,0,.9,0,.6,0,.8h-10.6,0ZM75.9,343.5c0-.6,0-1.1-.2-1.6-.1-.5-.4-1-.7-1.4s-.7-.7-1.1-.9c-.5-.2-1-.4-1.6-.4-1.2,0-2.2.4-2.8,1.1-.7.8-1.1,1.8-1.2,3.1h7.7Z"/>
      <path class="st0" d="M83.6,337.2c.2,0,.4,0,.6,0,.2,0,.4,0,.6,0s.4,0,.7,0,.4,0,.6,0c0,.3.1.7.2,1.2s0,.9,0,1.3c.4-.7,1-1.3,1.7-1.8.7-.5,1.6-.8,2.7-.8s.3,0,.5,0,.3,0,.4,0c0,.2,0,.4,0,.6,0,.2,0,.4,0,.6s0,.5,0,.8,0,.5-.1.8c-.2,0-.3,0-.5,0h-.4c-.6,0-1.1,0-1.6.2s-.9.4-1.3.8c-.4.4-.7.9-.9,1.6-.2.7-.4,1.5-.4,2.6v7.8c-.2,0-.5,0-.7,0s-.5,0-.7,0-.5,0-.7,0-.5,0-.8,0v-15.6h0Z"/>
      <path class="st0" d="M95.6,330.5c.2,0,.5,0,.7,0s.5,0,.7,0,.5,0,.8,0,.5,0,.8,0v8.6c.4-.6.9-1.1,1.7-1.6.8-.4,1.7-.7,2.8-.7s1.8.1,2.6.5c.8.3,1.5.8,2,1.4.6.6,1,1.5,1.3,2.4.3,1,.5,2.1.5,3.5,0,2.7-.8,4.8-2.3,6.3-1.5,1.5-3.7,2.3-6.5,2.3s-1.8,0-2.8-.3-1.7-.4-2.4-.6v-21.8h0ZM98.6,350.2c.4.1.8.2,1.2.3.4,0,.9,0,1.3,0,.8,0,1.4-.1,2.1-.4s1.2-.6,1.7-1.1c.5-.5.8-1.1,1.1-1.8.3-.7.4-1.6.4-2.6,0-1.7-.3-3-.9-3.9-.6-.9-1.6-1.4-2.9-1.4s-.9,0-1.4.2c-.5.1-.9.4-1.3.7-.4.3-.7.8-.9,1.3-.2.6-.4,1.2-.4,2v6.5h0Z"/>
      <path class="st0" d="M116.5,345.7c0,1.7.5,3,1.3,3.7s2.1,1.2,3.7,1.2,2.8-.2,4.1-.8c.2.3.3.7.4,1.1.1.4.2.9.2,1.3-.7.3-1.4.5-2.2.6s-1.7.2-2.7.2c-1.4,0-2.6-.2-3.6-.6-1-.4-1.9-1-2.5-1.7-.7-.7-1.1-1.6-1.4-2.5-.3-1-.5-2.1-.5-3.2s.1-2.2.4-3.2c.3-1,.7-1.9,1.4-2.6s1.4-1.3,2.3-1.8c.9-.4,2-.6,3.3-.6s2,.2,2.8.5c.8.4,1.5.9,2,1.5.6.6,1,1.4,1.2,2.3.3.9.4,1.8.4,2.9s0,.6,0,.9c0,.3,0,.6,0,.8h-10.6,0ZM124.2,343.5c0-.6,0-1.1-.2-1.6-.1-.5-.4-1-.7-1.4s-.7-.7-1.1-.9c-.5-.2-1-.4-1.6-.4-1.2,0-2.2.4-2.8,1.1-.7.8-1.1,1.8-1.2,3.1h7.7,0Z"/>
      <path class="st0" d="M132.5,339.6h-2.4v-.4c-.1,0,5.1-5.8,5.1-5.8h.2v3.9h3.9c0,.3.1.7.1,1.1s0,.4,0,.6,0,.4,0,.6h-3.9v7.1c0,.9,0,1.5.1,2,0,.5.2.9.4,1.2s.4.5.7.5.7.1,1.1.1.7,0,1,0c.3,0,.6-.1.8-.2.1.4.2.8.3,1.2s0,.8,0,1.1c-.4.1-.8.2-1.3.2-.4,0-.9,0-1.4,0-1.5,0-2.6-.4-3.4-1.1s-1.2-1.9-1.2-3.5v-8.8h0Z"/>
      <path class="st0" d="M145.8,345.7c0,1.7.5,3,1.3,3.7s2.1,1.2,3.7,1.2,2.8-.2,4.1-.8c.2.3.3.7.4,1.1.1.4.2.9.2,1.3-.7.3-1.4.5-2.2.6s-1.7.2-2.7.2c-1.4,0-2.6-.2-3.6-.6-1-.4-1.9-1-2.5-1.7-.7-.7-1.1-1.6-1.4-2.5-.3-1-.5-2.1-.5-3.2s.1-2.2.4-3.2c.3-1,.7-1.9,1.4-2.6s1.4-1.3,2.3-1.8c.9-.4,2-.6,3.3-.6s2,.2,2.8.5c.8.4,1.5.9,2,1.5.6.6,1,1.4,1.2,2.3.3.9.4,1.8.4,2.9s0,.6,0,.9c0,.3,0,.6,0,.8h-10.6,0ZM153.5,343.5c0-.6,0-1.1-.2-1.6-.1-.5-.4-1-.7-1.4s-.7-.7-1.1-.9c-.5-.2-1-.4-1.6-.4-1.2,0-2.2.4-2.8,1.1-.7.8-1.1,1.8-1.2,3.1h7.7,0Z"/>
      <path class="st0" d="M162.1,339.6h-2c0-.2,0-.4,0-.6,0-.2,0-.4,0-.6s0-.4,0-.6,0-.4,0-.6h4.9v15.6c-.2,0-.5,0-.7,0s-.5,0-.7,0-.4,0-.7,0-.5,0-.7,0v-13.2h0ZM161.5,333.8c0-.2,0-.5,0-.8,0-.3,0-.5,0-.8s0-.5,0-.8,0-.5,0-.8c.3,0,.6,0,.9,0s.6,0,.8,0,.5,0,.8,0c.3,0,.6,0,.8,0,0,.2,0,.5,0,.8,0,.3,0,.5,0,.8s0,.5,0,.8,0,.5,0,.8c-.2,0-.5,0-.8,0-.3,0-.6,0-.8,0s-.5,0-.8,0c-.3,0-.6,0-.9,0h0Z"/>
      <path class="st0" d="M170.7,330.5c.2,0,.5,0,.7,0s.5,0,.7,0,.5,0,.7,0,.5,0,.7,0v17.6c0,.6,0,1,.1,1.3.1.3.2.6.4.7s.4.3.6.3.5,0,.7,0,.4,0,.6,0c.2,0,.4,0,.6,0,.2.7.3,1.5.3,2.3-.3.1-.6.2-1,.2-.4,0-.8,0-1.1,0-.6,0-1.1,0-1.6-.2-.5-.1-.9-.4-1.3-.7-.4-.3-.7-.8-.9-1.3s-.3-1.2-.3-2v-18.2h0Z"/>
      <path class="st0" d="M181.4,339.6h-2c0-.2,0-.4,0-.6,0-.2,0-.4,0-.6s0-.4,0-.6c0-.2,0-.4,0-.6h4.9v15.6c-.2,0-.5,0-.7,0s-.5,0-.7,0-.4,0-.7,0-.5,0-.7,0v-13.2h0ZM180.8,333.8c0-.2,0-.5,0-.8s0-.5,0-.8,0-.5,0-.8c0-.3,0-.5,0-.8.3,0,.6,0,.9,0s.6,0,.8,0,.5,0,.8,0c.3,0,.6,0,.8,0,0,.2,0,.5,0,.8,0,.3,0,.5,0,.8s0,.5,0,.8c0,.3,0,.5,0,.8-.2,0-.5,0-.8,0-.3,0-.6,0-.8,0s-.5,0-.8,0c-.3,0-.6,0-.9,0h0Z"/>
      <path class="st0" d="M198.4,350.8c1.8,0,3.1.4,3.9,1.1.8.7,1.2,1.7,1.2,3s-.2,1.6-.6,2.2c-.4.7-1,1.2-1.8,1.7-.8.5-1.6.8-2.7,1.1-1,.2-2.1.4-3.3.4-2.1,0-3.7-.3-4.8-1-1.1-.6-1.6-1.7-1.6-3.1s.2-1.6.7-2.2,1-1.2,1.7-1.6c-.4-.3-.7-.6-1-1-.3-.4-.4-.9-.4-1.5s.2-1.4.5-1.9c.3-.5.8-1,1.4-1.5-.7-.5-1.2-1.1-1.6-1.8s-.6-1.6-.6-2.5.1-1.5.4-2.2.7-1.2,1.2-1.8,1.2-.9,2-1.2c.8-.3,1.7-.4,2.7-.4s1.7.1,2.5.4,1.4.6,1.9,1c.4-.3.9-.6,1.6-.8s1.4-.3,2.3-.3c0,.4.1.8.1,1.3s0,.5,0,.7c0,.2,0,.5,0,.7h-2.7c.2.3.4.7.5,1.1.1.4.2.9.2,1.4,0,.8-.1,1.6-.5,2.2-.3.7-.7,1.2-1.3,1.7s-1.2.8-2,1.1-1.6.4-2.5.4-1.6,0-2.2-.3c-.3.2-.6.4-.8.7s-.4.7-.4,1.1.1.7.4,1c.3.3.9.4,1.8.4h4c0,0,0,0,0,0ZM194.3,353.2c-.9,0-1.6.2-2.1.7s-.7,1.1-.7,1.8,0,.8.3,1.1c.2.3.4.5.8.7s.7.3,1.2.4c.5,0,1,.1,1.5.1,1.6,0,2.9-.3,3.8-.8.9-.5,1.4-1.2,1.4-2s-.2-1.1-.6-1.4-1.1-.5-2.1-.5h-3.5c0,0,0,0,0,0ZM195.7,345.6c1.1,0,1.9-.3,2.4-.9s.8-1.4.8-2.3-.3-1.8-.8-2.4-1.3-.9-2.4-.9-1.9.3-2.4.9c-.5.6-.8,1.4-.8,2.4s.3,1.7.8,2.3c.5.6,1.3.9,2.4.9Z"/>
      <path class="st0" d="M207.4,337.2c.2,0,.5,0,.8,0s.5,0,.7,0,.5,0,.8,0,.5,0,.8,0v8.5c0,1,0,1.8.3,2.4.2.6.5,1.1.8,1.5.4.4.8.6,1.3.8s1.1.2,1.8.2c1,0,1.9-.1,2.6-.3v-13.1c.2,0,.5,0,.7,0s.5,0,.7,0,.5,0,.7,0,.5,0,.7,0v15.1c-.7.2-1.5.4-2.5.6-1,.2-2,.3-3,.3s-1.9,0-2.8-.3-1.7-.5-2.3-1c-.7-.5-1.2-1.3-1.6-2.2-.4-1-.6-2.2-.6-3.8v-8.7h0Z"/>
      <path class="st0" d="M225.8,337.2c.2,0,.4,0,.6,0s.4,0,.6,0,.4,0,.6,0,.4,0,.6,0c0,.3.1.7.2,1.2,0,.5,0,1,0,1.3.2-.3.5-.7.8-1s.7-.6,1.1-.9c.4-.3.9-.5,1.4-.7s1.1-.3,1.7-.3c1.8,0,3.1.5,4,1.5s1.3,2.5,1.3,4.5v9.9c-.2,0-.5,0-.8,0s-.5,0-.8,0-.5,0-.7,0-.5,0-.7,0v-9c0-1.4-.2-2.5-.7-3.2s-1.1-1-2.1-1-1.1.1-1.6.3c-.5.2-1,.5-1.3.9-.4.4-.7,1-.9,1.7-.2.7-.4,1.5-.4,2.4v7.9c-.2,0-.5,0-.7,0s-.5,0-.7,0-.5,0-.8,0-.5,0-.8,0v-15.6h0Z"/>
      <path class="st0" d="M252.5,350.8c1.8,0,3.1.4,3.9,1.1.8.7,1.2,1.7,1.2,3s-.2,1.6-.6,2.2c-.4.7-1,1.2-1.8,1.7-.8.5-1.6.8-2.7,1.1s-2.1.4-3.3.4c-2.1,0-3.7-.3-4.8-1-1.1-.6-1.6-1.7-1.6-3.1s.2-1.6.7-2.2,1-1.2,1.7-1.6c-.4-.3-.7-.6-1-1-.3-.4-.4-.9-.4-1.5s.2-1.4.5-1.9.8-1,1.4-1.5c-.7-.5-1.2-1.1-1.6-1.8-.4-.7-.6-1.6-.6-2.5s.1-1.5.4-2.2.7-1.2,1.2-1.8,1.2-.9,2-1.2c.8-.3,1.7-.4,2.7-.4s1.7.1,2.5.4,1.4.6,1.9,1c.4-.3,1-.6,1.6-.8s1.5-.3,2.3-.3c0,.4.1.8.1,1.3s0,.5,0,.7c0,.2,0,.5,0,.7h-2.7c.2.3.4.7.5,1.1.1.4.2.9.2,1.4,0,.8-.1,1.6-.5,2.2-.3.7-.7,1.2-1.3,1.7s-1.2.8-2,1.1-1.6.4-2.5.4-1.6,0-2.2-.3c-.3.2-.6.4-.8.7s-.4.7-.4,1.1.1.7.4,1c.3.3.9.4,1.8.4h4c0,0,0,0,0,0ZM248.4,353.2c-.9,0-1.6.2-2,.7s-.7,1.1-.7,1.8,0,.8.3,1.1.4.5.8.7.7.3,1.2.4c.5,0,1,.1,1.5.1,1.6,0,2.9-.3,3.8-.8.9-.5,1.4-1.2,1.4-2s-.2-1.1-.6-1.4c-.4-.3-1.1-.5-2.1-.5h-3.5c0,0,0,0,0,0ZM249.8,345.6c1.1,0,1.9-.3,2.4-.9.5-.6.8-1.4.8-2.3s-.3-1.8-.8-2.4c-.5-.6-1.3-.9-2.4-.9s-1.9.3-2.4.9-.8,1.4-.8,2.4.3,1.7.8,2.3,1.3.9,2.4.9Z"/>
      <path class="st0" d="M270.5,339.6h-2c0-.2,0-.4,0-.6s0-.4,0-.6,0-.4,0-.6,0-.4,0-.6h4.9v15.6c-.2,0-.5,0-.7,0s-.5,0-.7,0-.4,0-.7,0-.5,0-.7,0v-13.2h0ZM269.8,333.8c0-.2,0-.5,0-.8,0-.3,0-.5,0-.8s0-.5,0-.8,0-.5,0-.8c.3,0,.5,0,.9,0,.3,0,.6,0,.8,0s.5,0,.8,0c.3,0,.6,0,.8,0,0,.2,0,.5,0,.8,0,.3,0,.5,0,.8s0,.5,0,.8,0,.5,0,.8c-.2,0-.5,0-.8,0-.3,0-.5,0-.8,0s-.5,0-.8,0c-.3,0-.6,0-.9,0h0Z"/>
      <path class="st0" d="M279.1,337.2c.2,0,.4,0,.6,0s.4,0,.6,0,.4,0,.6,0,.4,0,.6,0c0,.3.1.7.2,1.2,0,.5,0,1,0,1.3.2-.3.5-.7.8-1s.7-.6,1.1-.9.9-.5,1.4-.7,1.1-.3,1.7-.3c1.8,0,3.1.5,4,1.5s1.3,2.5,1.3,4.5v9.9c-.2,0-.5,0-.8,0s-.5,0-.8,0-.5,0-.7,0-.5,0-.7,0v-9c0-1.4-.2-2.5-.7-3.2s-1.1-1-2.1-1-1.1.1-1.6.3c-.5.2-1,.5-1.3.9s-.7,1-.9,1.7c-.2.7-.4,1.5-.4,2.4v7.9c-.2,0-.5,0-.7,0s-.5,0-.7,0-.5,0-.8,0-.5,0-.8,0v-15.6h0Z"/>
      <path class="st0" d="M318.3,341.5c.2,0,.5,0,.8,0s.5,0,.8,0,.5,0,.8,0,.5,0,.7,0v10.7c-.4.2-.9.3-1.4.5-.5.1-1,.2-1.6.3-.5,0-1.1.1-1.6.2-.5,0-1.1,0-1.5,0-1.6,0-3.1-.2-4.4-.8-1.3-.5-2.4-1.2-3.3-2.2-.9-1-1.6-2.1-2-3.5-.5-1.4-.7-2.9-.7-4.7s.2-3.3.7-4.7c.5-1.4,1.2-2.6,2.1-3.6.9-1,2-1.8,3.2-2.3s2.6-.8,4.1-.8,2.2,0,3,.2c.9.1,1.6.4,2.3.6,0,.5-.1.9-.3,1.3-.1.4-.3.8-.5,1.3-.6-.2-1.2-.3-1.8-.5s-1.5-.2-2.5-.2-2,.2-2.9.6c-.9.4-1.6,1-2.2,1.7s-1.1,1.6-1.4,2.7c-.3,1.1-.5,2.3-.5,3.7s.2,2.7.5,3.7.9,1.9,1.5,2.6c.6.7,1.4,1.2,2.3,1.5.9.3,1.9.5,2.9.5s1.2,0,1.7-.1c.5,0,.9-.2,1.2-.3v-8.5h0Z"/>
      <path class="st0" d="M333.1,353.1c-1.2,0-2.3-.2-3.2-.6s-1.7-1-2.3-1.7-1.1-1.6-1.4-2.6-.4-2.1-.4-3.2.1-2.2.4-3.2.7-1.9,1.4-2.6c.6-.7,1.4-1.3,2.3-1.7s2-.6,3.2-.6,2.3.2,3.2.6,1.7,1,2.3,1.7,1.1,1.6,1.4,2.6.4,2.1.4,3.2-.1,2.2-.4,3.2-.7,1.9-1.4,2.6-1.4,1.3-2.3,1.7-2,.6-3.2.6ZM333.1,350.7c1.4,0,2.4-.5,3.1-1.5.7-1,1-2.4,1-4.2s-.3-3.2-1-4.2c-.7-1-1.7-1.5-3.1-1.5s-2.4.5-3.1,1.5c-.7,1-1,2.4-1,4.2s.3,3.2,1,4.2,1.7,1.5,3.1,1.5Z"/>
      <path class="st0" d="M344.8,349.9c.5.2,1.1.4,1.8.5s1.3.2,2,.2.9,0,1.3-.1c.4-.1.8-.2,1.1-.5.3-.2.6-.5.8-.7.2-.3.3-.6.3-1s0-.7-.2-1c-.1-.3-.4-.5-.6-.7-.2-.2-.5-.3-.9-.5-.3-.1-.7-.3-1.1-.4l-1.1-.4c-1.3-.5-2.2-1-2.8-1.6-.6-.6-.9-1.4-.9-2.5s.5-2.5,1.5-3.3,2.4-1.2,4.3-1.2,1.6,0,2.3.2c.8.1,1.4.3,2,.5,0,.4-.1.8-.2,1.2-.1.4-.2.8-.4,1.1-.5-.2-1-.3-1.6-.5-.6-.1-1.3-.2-2-.2s-1.4.1-2,.4-.9.7-.9,1.4,0,.6.2.9c.1.2.3.5.6.6.2.2.5.3.8.4s.6.2,1,.4l1.3.5c.5.2,1,.4,1.4.6.4.2.8.5,1.1.8.3.3.6.7.8,1.2.2.5.3,1,.3,1.7s-.1,1.4-.5,2-.7,1.1-1.3,1.6c-.6.4-1.2.8-2,1-.8.2-1.7.4-2.6.4s-1.8,0-2.5-.2c-.7-.1-1.4-.3-2-.5,0-.4.1-.8.3-1.2.1-.4.3-.8.4-1.2h0Z"/>
      <path class="st0" d="M359.6,330.5c.2,0,.5,0,.7,0s.5,0,.7,0,.5,0,.7,0,.5,0,.7,0v17.6c0,.6,0,1,.1,1.3s.2.6.4.7.4.3.6.3c.2,0,.5,0,.7,0s.4,0,.6,0c.2,0,.4,0,.6,0,.2.7.3,1.5.3,2.3-.3.1-.6.2-1,.2s-.8,0-1.1,0c-.6,0-1.1,0-1.6-.2s-1-.4-1.3-.7c-.4-.3-.7-.8-.9-1.3s-.3-1.2-.3-2v-18.2h0Z"/>
      <path class="st0" d="M377.7,342.5c0-1.2-.3-2-.9-2.5-.6-.5-1.5-.7-2.6-.7s-1.4,0-2,.2c-.6.1-1.2.3-1.8.4-.4-.7-.6-1.5-.6-2.4.7-.2,1.5-.4,2.3-.5s1.6-.2,2.4-.2c2,0,3.6.5,4.6,1.4,1,.9,1.6,2.4,1.6,4.4v9.8c-.7.2-1.6.3-2.6.5-1,.2-2,.3-3.1.3s-1.9,0-2.7-.3-1.5-.5-2-.9-1-.9-1.3-1.5c-.3-.6-.5-1.4-.5-2.3s.2-1.6.5-2.3.8-1.2,1.4-1.6c.6-.4,1.3-.8,2.1-1s1.6-.3,2.5-.3,1.2,0,1.6,0,.8,0,1,.1v-.6h0ZM377.7,345.5c-.3,0-.7,0-1.1-.1-.5,0-.9,0-1.2,0-1.3,0-2.2.2-2.9.7s-1,1.2-1,2.1.1,1.1.3,1.4c.2.3.5.6.8.8.3.2.7.3,1.1.3.4,0,.8,0,1.1,0s1,0,1.4,0c.5,0,.9-.1,1.3-.2v-5h0Z"/>
      <path class="st0" d="M386,337.2c.2,0,.4,0,.6,0,.2,0,.4,0,.6,0s.5,0,.7,0,.4,0,.6,0c0,.3.1.7.2,1.2s0,.9,0,1.3c.4-.7,1-1.3,1.7-1.8.7-.5,1.6-.8,2.7-.8s.3,0,.5,0,.3,0,.4,0c0,.2,0,.4,0,.6,0,.2,0,.4,0,.6s0,.5,0,.8,0,.5-.1.8c-.2,0-.3,0-.5,0h-.4c-.5,0-1.1,0-1.6.2s-.9.4-1.3.8c-.4.4-.7.9-.9,1.6-.2.7-.4,1.5-.4,2.6v7.8c-.2,0-.5,0-.7,0s-.5,0-.7,0-.5,0-.7,0-.5,0-.8,0v-15.6h0Z"/>
    </g>
    <g>
      <g>
        <path class="st0" d="M31.5,240.2c.7-.1,1.4-.2,2.3-.2.8,0,1.7,0,2.4,0s1.6,0,2.5,0c.9,0,1.7.1,2.3.2l15.4,37.2,15.5-37.2c.6-.1,1.2-.2,2.1-.2.8,0,1.6,0,2.4,0s1.5,0,2.4,0c.9,0,1.6.1,2.2.2l2.8,59.5c-.7.1-1.3.2-2,.2-.7,0-1.4,0-2.1,0s-1.4,0-2.1,0c-.7,0-1.3-.1-1.9-.2l-1.9-46.3-14.6,33.9c-1.1.2-2.2.2-3.4.2s-2.1,0-3.1-.2l-14.1-34.2-1.9,46.5c-.6.1-1.2.2-1.9.2-.7,0-1.3,0-1.9,0s-1.4,0-2.1,0c-.7,0-1.3-.1-1.9-.2l2.7-59.5h0Z"/>
        <path class="st0" d="M119.1,271.8c0-3.3-.8-5.5-2.5-6.8-1.6-1.3-4.1-1.9-7.2-1.9s-3.7.1-5.4.5c-1.7.3-3.3.7-4.9,1.2-1.1-1.8-1.6-4-1.6-6.5,1.9-.6,3.9-1.1,6.2-1.4,2.3-.3,4.4-.5,6.5-.5,5.5,0,9.7,1.2,12.6,3.8,2.9,2.5,4.3,6.5,4.3,12v26.6c-1.9.4-4.3.9-7,1.4-2.8.5-5.6.7-8.4.7s-5.1-.2-7.3-.7c-2.2-.5-4-1.3-5.5-2.4-1.5-1.1-2.7-2.5-3.5-4.2-.8-1.7-1.2-3.8-1.2-6.2s.5-4.5,1.4-6.2c1-1.8,2.3-3.3,3.9-4.5,1.6-1.2,3.6-2.1,5.7-2.6s4.4-.9,6.8-.9,3.2,0,4.3.1c1.1,0,2.1.2,2.9.3v-1.6h0ZM119.1,279.8c-.8-.1-1.9-.2-3.1-.3-1.3-.1-2.4-.2-3.2-.2-3.4,0-6,.6-7.8,1.9-1.8,1.3-2.7,3.2-2.7,5.8s.3,3,.9,3.9,1.4,1.6,2.3,2.1,1.9.8,3,.9c1.1.1,2.1.2,3.1.2s2.6,0,3.9-.2c1.4-.1,2.6-.3,3.6-.6v-13.5h0Z"/>
        <path class="st0" d="M167.7,292.3c.4.8.8,1.7,1.2,2.9s.5,2.3.6,3.6c-3.3,1.3-7,1.9-11.2,1.9-7.1,0-12.4-2-16-6-3.6-4-5.4-9.4-5.4-16.2s.4-6.1,1.3-8.8c.9-2.7,2.2-5,3.9-7,1.7-2,3.9-3.6,6.5-4.7,2.6-1.2,5.6-1.7,9-1.7s4.4.1,6.1.4c1.8.3,3.4.7,5.1,1.3,0,.9-.1,2-.4,3.3s-.6,2.3-1,3.3c-2.7-.9-5.8-1.4-9.3-1.4s-7.4,1.4-9.5,4.2c-2.1,2.8-3.1,6.5-3.1,11.2s1.2,9.2,3.6,11.6,5.6,3.7,9.8,3.7,3.2-.1,4.6-.3c1.4-.2,2.8-.6,4.3-1.2h0Z"/>
        <path class="st0" d="M178.9,239.1c.6-.1,1.3-.2,2-.2.7,0,1.4,0,2,0s1.3,0,2.1,0c.8,0,1.5.1,2.1.2v24.7c.5-.8,1.1-1.6,1.9-2.5s1.7-1.7,2.7-2.4,2.3-1.4,3.7-1.8c1.4-.5,3-.7,4.7-.7,4.9,0,8.5,1.4,10.8,4.2,2.3,2.8,3.5,6.9,3.5,12.4v26.9c-.6.1-1.3.2-2,.2-.7,0-1.4,0-2,0s-1.3,0-2,0c-.7,0-1.4-.1-2-.2v-24.7c0-3.9-.6-6.8-1.9-8.6-1.3-1.9-3.3-2.8-5.9-2.8s-2.9.3-4.3.8c-1.4.5-2.6,1.4-3.6,2.5s-1.9,2.6-2.5,4.4c-.6,1.8-.9,4-.9,6.6v21.8c-.6.1-1.3.2-2.1.2-.8,0-1.5,0-2.1,0s-1.2,0-2,0c-.8,0-1.5-.1-2.1-.2v-60.6h0Z"/>
        <path class="st0" d="M234.1,240.2c.7-.1,1.4-.2,2.3-.2.9,0,1.7,0,2.4,0s1.6,0,2.5,0c.9,0,1.7.1,2.3.2l15.4,37.2,15.5-37.2c.5-.1,1.2-.2,2.1-.2.8,0,1.6,0,2.4,0s1.5,0,2.4,0c.9,0,1.6.1,2.2.2l2.8,59.5c-.7.1-1.3.2-2,.2-.7,0-1.4,0-2.1,0s-1.4,0-2.1,0c-.7,0-1.3-.1-2-.2l-1.9-46.3-14.6,33.9c-1.1.2-2.2.2-3.4.2s-2.1,0-3.1-.2l-14.1-34.2-1.9,46.5c-.6.1-1.2.2-1.9.2-.7,0-1.3,0-1.9,0s-1.4,0-2.1,0c-.7,0-1.3-.1-1.9-.2l2.6-59.5h0Z"/>
        <path class="st0" d="M301.8,263.7h-5.4c-.1-.4-.2-1-.2-1.5s0-1.1,0-1.7,0-1.1,0-1.7c0-.6.1-1.1.2-1.5h13.4v42.5c-.6.1-1.3.2-2,.2-.7,0-1.4,0-2,0s-1.2,0-1.9,0c-.7,0-1.4-.1-2-.2v-36h0Z"/>
        <path class="st0" d="M324.7,263.8h-6.5l-.3-1.2,14.2-15.9h.7v10.5h10.8c.2.9.3,2,.3,3.1s0,1.2,0,1.7c0,.5-.1,1.1-.2,1.6h-10.8v19.4c0,2.3.1,4.2.3,5.5.2,1.4.5,2.4,1,3.2.5.7,1.1,1.2,1.9,1.5s1.8.4,3,.4,1.8,0,2.6-.2c.8-.1,1.6-.3,2.2-.5.4,1.1.6,2.2.7,3.4,0,1.2.1,2.2.1,3.1-1.1.3-2.3.5-3.5.6-1.2.1-2.5.2-3.9.2-4,0-7.1-1-9.3-2.9s-3.4-5.1-3.4-9.6v-24.1h0Z"/>
      </g>
      <g>
        <g>
          <path class="st1" d="M353.8,240.2c.7-.1,1.4-.2,2.1-.2.7,0,1.4,0,2.1,0s1.5,0,2.3,0c.8,0,1.5.1,2.3.2l-.5,41.6c-1.3.2-2.6.3-3.9.3s-2.8-.1-3.9-.3l-.6-41.6h0Z"/>
          <circle class="st1" cx="358.2" cy="294.5" r="5.9"/>
        </g>
        <circle class="st1" cx="304.4" cy="245.1" r="5.7"/>
      </g>
    </g>
  </g>
</svg>